<?xml version="1.0" encoding="iso-8859-1"?>
<!-- Generator: Adobe Illustrator 19.0.0, SVG Export Plug-In . SVG Version: 6.00 Build 0)  -->
<svg version="1.1" id="Layer_1" xmlns="http://www.w3.org/2000/svg" xmlns:xlink="http://www.w3.org/1999/xlink" x="0px" y="0px"
	 viewBox="0 0 512 512" style="enable-background:new 0 0 512 512;" xml:space="preserve">
<path style="fill:#BDBDBD;" d="M319.952,68.693c0.939,19.115-7.253,33.195-15.872,48.128c-7.253,12.629-14.763,25.6-17.323,41.899
	c-5.291-3.243-11.435-5.12-18.005-5.12c-7.424,0-14.251,2.389-19.883,6.4c-6.571-18.005-19.029-27.136-30.293-35.328
	c-9.899-7.168-18.603-13.568-24.149-25.515l94.037-31.317c4.523-1.536,6.912-6.315,5.461-10.837l-12.885-38.4
	C303.397,24.149,319.952,44.373,319.952,68.693z"/>
<path style="fill:#D50000;" d="M285.819,187.733v260.779c-5.035-2.987-10.837-4.779-17.067-4.779
	c-6.229,0-12.032,1.792-17.067,4.779V187.733c0-9.387,7.595-17.067,17.067-17.067C278.139,170.667,285.819,178.347,285.819,187.733z
	"/>
<path d="M268.752,0c-2.731,0-5.376,1.365-6.912,3.584c-1.621,2.219-2.048,5.035-1.195,7.68l14.336,43.093l-24.747,8.277
	l-16.043-48.299c-1.195-3.413-4.437-5.803-8.107-5.803c-21.76,0-33.451,36.437-34.133,73.472l-11.264,3.755
	c-4.352,1.451-6.741,6.059-5.461,10.496c6.571,22.699,20.736,33.024,33.28,42.24c11.861,8.533,22.016,16.043,26.112,33.109v306.261
	c0,18.859,15.275,34.133,34.133,34.133c18.773,0,34.133-15.275,34.133-34.133v-307.2c0-17.664,7.765-31.061,15.957-45.227
	c9.557-16.469,19.371-33.451,18.176-57.173C337.019,30.635,306.384,0,268.752,0z M221.221,29.611l12.8,38.4l-24.747,8.277
	C210.469,52.395,216.357,36.523,221.221,29.611z M268.752,494.933c-9.472,0-17.067-7.68-17.067-17.067s7.595-17.067,17.067-17.067
	c9.387,0,17.067,7.68,17.067,17.067S278.139,494.933,268.752,494.933z M285.819,448.512c-5.035-2.987-10.837-4.779-17.067-4.779
	c-6.229,0-12.032,1.792-17.067,4.779V187.733c0-9.387,7.595-17.067,17.067-17.067c9.387,0,17.067,7.68,17.067,17.067V448.512z
	 M304.08,116.821c-7.253,12.629-14.763,25.6-17.323,41.899c-5.291-3.243-11.435-5.12-18.005-5.12c-7.424,0-14.251,2.389-19.883,6.4
	c-6.571-18.005-19.029-27.136-30.293-35.328c-9.899-7.168-18.603-13.568-24.149-25.515l94.037-31.317
	c4.523-1.536,6.912-6.315,5.461-10.837l-12.885-38.4c22.357,5.547,38.912,25.771,38.912,50.091
	C320.891,87.808,312.699,101.888,304.08,116.821z"/>
<path style="fill:#717272;" d="M234.021,68.011l-24.747,8.277c1.195-23.893,7.083-39.765,11.947-46.677L234.021,68.011z"/>
<path style="fill:#FFFFFF;" d="M285.819,477.867c0,9.387-7.68,17.067-17.067,17.067c-9.472,0-17.067-7.68-17.067-17.067
	s7.595-17.067,17.067-17.067C278.139,460.8,285.819,468.48,285.819,477.867z"/>
<path style="fill:#B71C1C;" d="M268.752,170.667c-6.946,0-12.851,4.156-15.522,10.061c2.133-0.964,4.489-1.527,6.989-1.527
	c9.387,0,17.067,7.68,17.067,17.067v248.644c3.021,0.819,5.888,2.039,8.533,3.601V187.733
	C285.819,178.347,278.139,170.667,268.752,170.667z"/>
<path style="fill:#90A4AE;" d="M281.04,18.603l1.852,5.513c15.309,8.892,25.685,25.404,25.685,44.578
	c0.939,19.115-7.253,33.195-15.872,48.128c-6.605,11.494-13.227,23.407-16.333,37.717c3.695,0.853,7.211,2.227,10.385,4.181
	c2.56-16.299,10.069-29.269,17.323-41.899c8.619-14.933,16.811-29.013,15.872-48.128C319.952,44.373,303.397,24.149,281.04,18.603z"
	/>
<g>
</g>
<g>
</g>
<g>
</g>
<g>
</g>
<g>
</g>
<g>
</g>
<g>
</g>
<g>
</g>
<g>
</g>
<g>
</g>
<g>
</g>
<g>
</g>
<g>
</g>
<g>
</g>
<g>
</g>
</svg>
