<?xml version="1.0" encoding="iso-8859-1"?>
<!-- Generator: Adobe Illustrator 19.0.0, SVG Export Plug-In . SVG Version: 6.00 Build 0)  -->
<svg version="1.1" id="Layer_1" xmlns="http://www.w3.org/2000/svg" xmlns:xlink="http://www.w3.org/1999/xlink" x="0px" y="0px"
	 viewBox="0 0 512 512" style="enable-background:new 0 0 512 512;" xml:space="preserve">
<path style="fill:#3949AB;" d="M293.961,485.205l-4.864,9.728h-57.685l-4.864-9.728l7.936-39.765
	c0.085-0.597,0.171-1.109,0.171-1.707V282.283l7.253-43.349h36.693l7.253,43.349v161.451c0,0.597,0.085,1.109,0.171,1.707
	L293.961,485.205z"/>
<rect x="251.721" y="102.4" style="fill:#BDBDBD;" width="17.067" height="119.467"/>
<path style="fill:#717272;" d="M354.121,17.067v42.667H338.42l-24.235-8.107c-0.939-0.256-1.792-0.427-2.731-0.427
	c-20.565,0-37.888,14.677-41.813,34.133h-21.163l-14.763-29.44c-1.707-3.413-5.547-5.291-9.301-4.523
	c-36.693,7.509-51.285,30.891-61.013,53.077l-4.864-4.864c7.083-32.683,32-82.517,118.784-82.517c5.12,0,7.509,1.195,11.093,2.987
	c4.949,2.475,11.008,5.547,23.04,5.547c0.939,0,1.792-0.171,2.731-0.427l24.235-8.107H354.121z"/>
<path d="M362.654,0h-25.6c-0.939,0-1.792,0.171-2.731,0.427l-24.235,8.107c-6.997-0.171-10.069-1.792-13.995-3.669
	C291.828,2.645,286.537,0,277.321,0c-75.349,0-125.013,36.779-136.363,100.949c-0.512,2.731,0.341,5.547,2.304,7.509l17.067,17.067
	c2.048,1.963,4.949,2.731,7.851,2.219c2.731-0.597,5.12-2.645,6.229-5.291c9.216-22.784,17.92-44.373,47.104-52.821l13.141,26.283
	v125.952c-4.181,0-7.765,2.987-8.448,7.168l-8.533,51.2c-0.085,0.427-0.085,0.853-0.085,1.365v161.28l-8.363,41.813
	c-0.341,1.877-0.085,3.84,0.768,5.547l8.533,17.067c1.365,2.901,4.352,4.693,7.595,4.693h68.267c3.243,0,6.229-1.792,7.595-4.693
	l8.533-17.067c0.853-1.707,1.109-3.669,0.768-5.547l-8.363-41.813V281.6c0-0.512,0-0.939-0.085-1.365l-8.533-51.2
	c-0.683-4.181-4.267-7.168-8.448-7.168v-128c0-13.653,10.752-24.917,24.32-25.6l24.149,8.107c0.939,0.256,1.792,0.427,2.731,0.427
	h25.6c4.693,0,8.533-3.84,8.533-8.533V8.533C371.188,3.84,367.348,0,362.654,0z M286.025,445.44l7.936,39.765l-4.864,9.728h-57.685
	l-4.864-9.728l7.936-39.765c0.085-0.597,0.171-1.109,0.171-1.707V282.283l7.253-43.349h36.693l7.253,43.349v161.451
	C285.854,444.331,285.94,444.843,286.025,445.44z M251.721,221.867V102.4h17.067v119.467H251.721z M354.121,59.733H338.42
	l-24.235-8.107c-0.939-0.256-1.792-0.427-2.731-0.427c-20.565,0-37.888,14.677-41.813,34.133h-21.163l-14.763-29.44
	c-1.707-3.413-5.547-5.291-9.301-4.523c-36.693,7.509-51.285,30.891-61.013,53.077l-4.864-4.864
	c7.083-32.683,32-82.517,118.784-82.517c5.12,0,7.509,1.195,11.093,2.987c4.949,2.475,11.008,5.547,23.04,5.547
	c0.939,0,1.792-0.171,2.731-0.427l24.235-8.107h15.701V59.733z"/>
<path style="fill:#555656;" d="M345.588,17.067V51.2l-25.6-8.533h-8.533c-0.939-0.256-7.595,0-8.533,0
	c-20.565,0-38.741,23.211-42.667,42.667h9.387c3.925-19.456,21.248-34.133,41.813-34.133c0.939,0,1.792,0.171,2.731,0.427
	l24.235,8.107h15.701V17.067H345.588z"/>
<rect x="260.254" y="102.4" style="fill:#90A4AE;" width="8.533" height="119.467"/>
<path style="fill:#283593;" d="M286.025,445.44c-0.085-0.597-0.171-1.109-0.171-1.707V282.283l-7.253-43.349h-16.64l7.253,43.349
	v161.451c0,0.597,0.085,1.109,0.171,1.707l7.936,39.765l-4.864,9.728h16.64l4.864-9.728L286.025,445.44z"/>
<g>
</g>
<g>
</g>
<g>
</g>
<g>
</g>
<g>
</g>
<g>
</g>
<g>
</g>
<g>
</g>
<g>
</g>
<g>
</g>
<g>
</g>
<g>
</g>
<g>
</g>
<g>
</g>
<g>
</g>
</svg>
