<?xml version="1.0" encoding="UTF-8" standalone="no"?>
<svg
   xmlns:dc="http://purl.org/dc/elements/1.1/"
   xmlns:cc="http://creativecommons.org/ns#"
   xmlns:rdf="http://www.w3.org/1999/02/22-rdf-syntax-ns#"
   xmlns:svg="http://www.w3.org/2000/svg"
   xmlns="http://www.w3.org/2000/svg"
   xmlns:sodipodi="http://sodipodi.sourceforge.net/DTD/sodipodi-0.dtd"
   xmlns:inkscape="http://www.inkscape.org/namespaces/inkscape"
   version="1.1"
   id="Capa_1"
   x="0px"
   y="0px"
   viewBox="0 0 229.99999 229.99999"
   xml:space="preserve"
   sodipodi:docname="minions-svgrepo-com.svg"
   inkscape:version="0.92.4 (5da689c313, 2019-01-14)"
   width="230"
   height="230"><metadata
   id="metadata39"><rdf:RDF><cc:Work
       rdf:about=""><dc:format>image/svg+xml</dc:format><dc:type
         rdf:resource="http://purl.org/dc/dcmitype/StillImage" /></cc:Work></rdf:RDF></metadata><defs
   id="defs37" /><sodipodi:namedview
   pagecolor="#ffffff"
   bordercolor="#666666"
   borderopacity="1"
   objecttolerance="10"
   gridtolerance="10"
   guidetolerance="10"
   inkscape:pageopacity="0"
   inkscape:pageshadow="2"
   inkscape:window-width="3840"
   inkscape:window-height="2066"
   id="namedview35"
   showgrid="false"
   showguides="true"
   inkscape:guide-bbox="true"
   inkscape:zoom="18.902304"
   inkscape:cx="107.5559"
   inkscape:cy="168.73288"
   inkscape:window-x="2869"
   inkscape:window-y="-11"
   inkscape:window-maximized="1"
   inkscape:current-layer="Capa_1"><sodipodi:guide
     position="97.607145,144.32103"
     orientation="0,1"
     id="guide851"
     inkscape:locked="false" /><sodipodi:guide
     position="99.999996,172.67762"
     orientation="1,0"
     id="guide906"
     inkscape:locked="false"
     inkscape:label=""
     inkscape:color="rgb(0,0,255)" /><sodipodi:guide
     position="111.62695,110.20543"
     orientation="0,1"
     id="guide908"
     inkscape:locked="false" /><sodipodi:guide
     position="131.37864,93.970141"
     orientation="0,1"
     id="guide910"
     inkscape:locked="false" /><sodipodi:guide
     position="91.999997,179.18669"
     orientation="1,0"
     id="guide912"
     inkscape:locked="false"
     inkscape:label=""
     inkscape:color="rgb(0,0,255)" /><sodipodi:guide
     position="108,175.7077"
     orientation="1,0"
     id="guide914"
     inkscape:locked="false"
     inkscape:label=""
     inkscape:color="rgb(0,0,255)" /><sodipodi:guide
     position="77.999997,163.40031"
     orientation="1,0"
     id="guide916"
     inkscape:locked="false"
     inkscape:label=""
     inkscape:color="rgb(0,0,255)" /><sodipodi:guide
     position="122,147.16502"
     orientation="1,0"
     id="guide918"
     inkscape:locked="false"
     inkscape:label=""
     inkscape:color="rgb(0,0,255)" /><sodipodi:guide
     position="63.272709,144.63845"
     orientation="0,1"
     id="guide1595"
     inkscape:locked="false" /></sodipodi:namedview>
<path
   style="fill:#a87a51;fill-opacity:1;stroke:#000000;stroke-width:1px;stroke-linecap:butt;stroke-linejoin:miter;stroke-opacity:1"
   d="m 150.24624,193.70812 13.54332,-1.05807 -1.69291,9.62846 c 0,0 2.01033,6.98327 2.01033,7.4065 0,0.42323 -4.23229,6.87747 -4.23229,6.87747 l -5.29036,-0.21161 -4.65551,4.54971 -10.36911,-9.62846 0.74065,-5.60778 9.09942,-6.03101 z"
   id="gloveRight"
   inkscape:connector-curvature="0" /><path
   style="fill:#a87a51;fill-opacity:1;stroke:#000000;stroke-width:1px;stroke-linecap:butt;stroke-linejoin:miter;stroke-opacity:1"
   d="m 36.39768,193.49651 13.120094,-0.21161 0.846458,6.03101 9.628456,8.04134 -0.211614,5.60779 -8.993613,7.61812 -5.925204,-4.54971 -6.877469,-0.21162 c 0,0 -1.269686,-8.14715 -1.269686,-8.67619 0,-0.52904 1.058072,-5.9252 1.058072,-5.9252 z"
   id="gloveLeft"
   inkscape:connector-curvature="0" /><path
   style="fill:#a87a51;fill-opacity:1;stroke:#000000;stroke-width:1px;stroke-linecap:butt;stroke-linejoin:miter;stroke-opacity:1"
   d="m 74.170854,228.20127 22.854358,-0.31742 -1.692916,-8.46457 -17.458189,-1.3755 -2.750988,3.70326 z"
   id="shoeLeft"
   inkscape:connector-curvature="0" /><path
   style="fill:#a87a51;fill-opacity:1;stroke:#000000;stroke-width:1px;stroke-linecap:butt;stroke-linejoin:miter;stroke-opacity:1"
   d="m 103.37364,229.27754 c 0,0 22.21952,-0.75884 22.0079,-1.39369 -0.21161,-0.63484 -0.95226,-9.52265 -0.95226,-9.52265 l -10.58072,-1.26968 -8.67619,0.52903 z"
   id="shoeRight"
   inkscape:connector-curvature="0" /><path
   style="fill:#0a75bc;fill-opacity:1;stroke:#000000;stroke-width:1px;stroke-linecap:butt;stroke-linejoin:miter;stroke-opacity:1"
   d="m 44.650643,129.27154 -1.692916,8.99361 18.939491,18.09303 0.529036,24.9705 -9.416842,12.16783 c 0,0 7.618119,8.57038 7.723927,8.04135 0.105807,-0.52904 76.075381,0.10581 76.075381,0.10581 l 11.10976,-8.04135 -8.25296,-5.39617 -1.4813,-32.58862 19.1511,-17.98723 -2.01034,-8.57038 -17.14076,15.13043 -38.619635,3.17422 -37.032524,-3.17422 z"
   id="path1559"
   inkscape:connector-curvature="0" /><path
   style="fill:#fcb729;fill-opacity:1;stroke:#000000;stroke-width:1px;stroke-linecap:butt;stroke-linejoin:miter;stroke-opacity:1"
   d="m 67.716614,202.06689 63.272716,-0.52903 -8.6762,16.40012 -17.14076,-0.31743 -1.3755,-7.72392 -7.194887,-0.42323 -1.269687,9.94588 -2.221951,-1.90453 h -16.29431 c 0,0 -2.750988,-8.14716 -2.962602,-8.67619 -0.211615,-0.52904 -6.136819,-6.77167 -6.136819,-6.77167 z"
   id="skinLegs"
   inkscape:connector-curvature="0" /><path
   style="fill:#fce029;fill-opacity:1;stroke:#000000;stroke-width:1px;stroke-linecap:butt;stroke-linejoin:miter;stroke-opacity:1"
   d="m 139.3481,155.08849 -1.05808,23.80663 3.28003,10.15749 6.34843,4.54971 4.3381,-6.98328 -0.63485,-42.42869 z"
   id="skinBodyRight"
   inkscape:connector-curvature="0" /><path
   style="fill:#fce029;fill-opacity:1;stroke:#000000;stroke-width:1px;stroke-linecap:butt;stroke-linejoin:miter;stroke-opacity:1"
   d="m 153.10303,142.18001 -0.52903,41.26482 -2.32776,10.26329 c 0,0 11.00395,0.63485 11.10976,-0.52903 0.1058,-1.16388 0.74065,-24.01824 0.63484,-24.54727 -0.10581,-0.52904 -2.32776,-15.65947 -2.32776,-15.65947 z"
   id="skinArmRight"
   inkscape:connector-curvature="0" /><path
   style="fill:#fce029;fill-opacity:1;stroke:#000000;stroke-width:1px;stroke-linecap:butt;stroke-linejoin:miter;stroke-opacity:1"
   d="m 46.343558,142.81486 -6.031011,12.48525 -2.116144,14.81301 0.423229,22.21951 11.7446,0.21162 -1.90453,-9.20523 v -36.08026 z"
   id="skinArmLeft"
   inkscape:connector-curvature="0" /><path
   style="fill:#fce029;fill-opacity:1;stroke:#000000;stroke-width:1px;stroke-linecap:butt;stroke-linejoin:miter;stroke-opacity:1"
   d="m 50.04681,144.50777 -0.846457,32.69443 v 7.4065 l 3.809059,8.88781 5.71359,-4.12648 c 0,0 3.174216,-17.88142 3.174216,-19.25691 0,-1.3755 -1.587108,-15.65947 -1.587108,-15.65947 z"
   id="skinBodyLeft"
   inkscape:connector-curvature="0" /><path
   d="m 46.754458,127.45409 c 0.395123,-18.60082 -0.321636,-38.719851 0.474614,-46.826279 0.9228,-9.394788 3.172154,-18.183038 8.291154,-25.329038 11.21253,-12.845537 28.264244,-18.416215 43.236714,-17.917271 39.64272,1.166758 51.78405,4.053835 53.81834,41.799758 l 1.27372,53.78973 c -5.25129,4.78947 -7.72877,5.45908 -15.23966,10.68692 -5.969,4.15462 -19.72073,3.79579 -27.52897,4.51894 -16.857634,1.56126 -34.444255,-0.0388 -47.142569,-3.76191 C 52.638229,141.10191 48.311624,133.1025 46.754458,127.45409 Z"
   id="skinHead"
   inkscape:connector-curvature="0"
   sodipodi:nodetypes="ccccccsssc"
   style="fill:#fce029;fill-opacity:1" /><g
   id="groupDoubleEyes"
   transform="translate(-120.53666,55.004806)"><ellipse
     ry="24.352932"
     rx="24.801834"
     cy="30.640188"
     cx="199.34988"
     id="eyeWhiteLeft"
     style="opacity:1;fill:#ffffff;fill-opacity:1;fill-rule:nonzero;stroke:none;stroke-width:3;stroke-linecap:round;stroke-linejoin:round;stroke-miterlimit:4;stroke-dasharray:none;stroke-opacity:1" /><ellipse
     ry="24.352932"
     rx="24.801834"
     cy="30.976864"
     cx="242.63152"
     id="eyeWhiteRight"
     style="opacity:1;fill:#ffffff;fill-opacity:1;fill-rule:nonzero;stroke:none;stroke-width:3;stroke-linecap:round;stroke-linejoin:round;stroke-miterlimit:4;stroke-dasharray:none;stroke-opacity:1" /><path
     style="fill:#000000;fill-opacity:1"
     sodipodi:nodetypes="ssscssscssscccssscscsss"
     inkscape:connector-curvature="0"
     id="doubleEyes"
     d="m 242.58955,57.239463 c -8.471,0 -16.425,-4.062 -21.43,-10.776 -5.006,6.715 -12.96,10.776 -21.43,10.776 -14.729,0 -26.712,-11.983 -26.712,-26.712 0,-14.729 11.982,-26.7109996 26.712,-26.7109996 8.47,0 16.0125,4.062 21.01851,10.7749996 5.005,-6.7139996 13.37049,-10.7749996 21.84149,-10.7749996 14.72899,0 26.71099,11.9819996 26.71099,26.7109996 0,14.729 -11.982,26.712 -26.71099,26.712 z M 220.68442,40.920044 v 0 c 0,0 1.377,0.290419 1.733,0.910419 4.047,7.037 12.07113,11.409 20.17213,11.409 12.52199,0 22.71099,-10.188 22.71099,-22.712 0,-12.522 -10.188,-22.7109996 -22.71099,-22.7109996 -8.102,0 -16.02208,4.3335916 -20.07008,11.3705916 -0.356,0.62 -1.018,1.003 -1.733,1.003 -0.71501,0 -1.37701,-0.383 -1.73301,-1.003 -4.049,-7.037 -11.22191,-11.3705916 -19.32191,-11.3705916 -12.523,0 -22.712,10.1879996 -22.712,22.7109996 0,12.523 10.188,22.712 22.712,22.712 8.101,0 15.17187,-4.372 19.21987,-11.409 0.356,-0.62 1.733,-0.910419 1.733,-0.910419 z" /><circle
     style="opacity:1;fill:none;fill-opacity:1;fill-rule:nonzero;stroke:#000000;stroke-width:3;stroke-linejoin:round;stroke-miterlimit:4;stroke-dasharray:none;stroke-opacity:1"
     id="pupilLeft"
     cx="199.24837"
     cy="30.864708"
     r="9" /><circle
     style="opacity:1;fill:none;fill-opacity:1;fill-rule:nonzero;stroke:#000000;stroke-width:3;stroke-linejoin:round;stroke-miterlimit:4;stroke-dasharray:none;stroke-opacity:1"
     id="eyeLeft"
     cx="199.24005"
     cy="30.222502"
     r="19" /><circle
     style="opacity:1;fill:none;fill-opacity:1;fill-rule:nonzero;stroke:#000000;stroke-width:3;stroke-linejoin:round;stroke-miterlimit:4;stroke-dasharray:none;stroke-opacity:1"
     id="pupilRight"
     cx="242.36954"
     cy="30.512693"
     r="9" /><circle
     style="opacity:1;fill:none;fill-opacity:1;fill-rule:nonzero;stroke:#000000;stroke-width:3;stroke-linejoin:round;stroke-miterlimit:4;stroke-dasharray:none;stroke-opacity:1"
     id="eyeRight"
     cx="242.40431"
     cy="30.472477"
     r="19" /></g><path
   d="M 124.589,229.99999 H 103.09 c -1.104,0 -2,-0.896 -2,-2 v -4.377 c 0,-1.844 0.596,-3.551 1.605,-4.938 l -0.89,-7.115 h -3.519 l -0.957,7.647 c -0.01,0.083 -0.025,0.164 -0.046,0.244 0.702,1.228 1.104,2.649 1.104,4.162 v 4.377 c 0,1.104 -0.896,2 -2,2 H 74.889 c -1.104,0 -2,-0.896 -2,-2 v -4.377 c 0,-1.93 0.653,-3.71 1.749,-5.131 -0.097,-0.92 -0.442,-3.166 -1.678,-6.696 -1.204,-3.44 -4.604,-6.384 -6.239,-7.544 -5.954,-0.394 -11.27,-3.165 -15.002,-7.371 l 0.211,2.09 c 1.239,0.732 3.575,2.069 5.104,2.663 3.528,1.373 5.511,4.363 5.583,8.422 0.062,3.44 -2.713,5.427 -5.054,6.324 -0.486,2.373 -2.191,5.472 -6.47,6.193 -4.442,0.758 -6.917,-2.098 -7.982,-4.542 H 41.49 c -2.831,0 -6.411,-1.226 -7.391,-7.065 -0.673,-4.017 1.147,-8.978 1.852,-10.693 l -1.32,-6.817 c -0.113,-0.586 0.041,-1.192 0.421,-1.652 0.36,-0.437 0.888,-0.699 1.45,-0.726 -0.543,-4.841 -1.495,-16.562 0.292,-28.246 1.735,-11.345 5.172,-18.192 6.878,-21.032 l -2.05,-1.928 c -0.485,-0.457 -0.712,-1.125 -0.604,-1.782 l 1.555,-9.443 c 0.12,-0.727 0.629,-1.329 1.326,-1.567 0.699,-0.237 1.469,-0.073 2.009,0.427 l 0.263,0.245 V 78.881992 c 0,-9.44 3.015,-18.189 8.134,-25.335 11.212532,-12.845536 30.934148,-17.976389 45.90661,-17.477445 21.6738,0.637899 34.32151,2.190691 43.31454,10.144808 6.86921,6.075642 9.47376,15.55847 10.39585,32.667637 v 48.566998 c 0.535,-0.456 1.272,-0.598 1.943,-0.369 0.696,0.238 1.206,0.841 1.326,1.567 l 1.556,9.443 c 0.108,0.657 -0.118,1.325 -0.604,1.782 l -1.789,1.683 c 1.587,2.864 4.872,9.867 6.616,21.277 1.788,11.684 0.835,23.404 0.292,28.246 0.563,0.026 1.091,0.288 1.451,0.726 0.38,0.46 0.534,1.066 0.421,1.652 l -1.32,6.817 c 0.704,1.716 2.523,6.677 1.851,10.693 -0.978,5.84 -4.559,7.065 -7.391,7.065 h -1.621 c -1.065,2.444 -3.541,5.298 -7.981,4.542 -4.278,-0.722 -5.983,-3.82 -6.47,-6.193 -2.341,-0.896 -5.116,-2.884 -5.055,-6.325 0.073,-4.058 2.056,-7.048 5.583,-8.421 1.435,-0.558 3.716,-1.842 5.104,-2.662 l 0.171,-1.686 c -3.708,3.977 -8.866,6.582 -14.624,6.966 -1.213,0.873 -4.935,3.79 -6.249,7.545 -1.659,4.74 -1.716,7.164 -1.716,7.188 -0.002,0.105 -0.012,0.208 -0.028,0.309 0.762,1.266 1.201,2.748 1.201,4.33 v 4.377 c 0,1.104 -0.896,1.999 -2,1.999 z m -19.499,-4 h 17.499 v -2.377 c 0,-1.081 -0.391,-2.073 -1.038,-2.842 -0.182,-0.085 -0.352,-0.196 -0.502,-0.334 -0.872,-0.794 -1.995,-1.231 -3.162,-1.231 h -8.095 c -1.167,0 -2.29,0.438 -3.162,1.231 -0.15,0.138 -0.32,0.249 -0.502,0.334 -0.647,0.769 -1.038,1.761 -1.038,2.842 z m -28.201,0 h 17.498 v -2.377 c 0,-1.081 -0.391,-2.073 -1.038,-2.842 -0.182,-0.084 -0.352,-0.197 -0.503,-0.334 -0.871,-0.794 -1.993,-1.231 -3.161,-1.231 h -8.094 c -1.168,0 -2.29,0.438 -3.161,1.231 -0.151,0.137 -0.321,0.25 -0.503,0.334 -0.647,0.769 -1.038,1.761 -1.038,2.842 z m 69.251,-10.299 c 0.22,1.007 0.93,2.547 3.197,2.93 3.051,0.509 3.847,-2.662 3.926,-3.026 0.201,-0.918 1.015,-1.572 1.954,-1.572 h 3.057 c 1.365,0 2.87,-0.288 3.445,-3.727 0.504,-3.005 -1.132,-7.501 -1.805,-8.979 -0.172,-0.378 -0.224,-0.803 -0.145,-1.21 l 0.976,-5.04 h -8.497 l -0.536,5.295 c -0.063,0.62 -0.41,1.175 -0.94,1.501 -0.166,0.103 -4.1,2.522 -6.592,3.491 -1.97,0.767 -2.99,2.369 -3.033,4.765 -0.023,1.293 1.453,2.094 2.449,2.486 l 2.613,-2.219 c 0.843,-0.715 2.104,-0.612 2.818,0.23 0.715,0.842 0.612,2.104 -0.23,2.818 z m -107.121,-20.625 0.976,5.04 c 0.079,0.407 0.027,0.832 -0.145,1.21 -0.673,1.479 -2.309,5.976 -1.806,8.979 0.576,3.438 2.081,3.727 3.445,3.727 h 3.057 c 0.939,0 1.753,0.654 1.954,1.572 0.136,0.581 0.982,3.525 3.927,3.026 2.268,-0.383 2.975,-1.948 3.195,-2.932 l -2.655,-2.255 c -0.843,-0.715 -0.945,-1.977 -0.23,-2.818 0.716,-0.845 1.978,-0.944 2.818,-0.23 l 2.613,2.218 c 0.995,-0.393 2.472,-1.193 2.448,-2.485 -0.042,-2.396 -1.063,-3.998 -3.033,-4.765 -2.491,-0.969 -6.426,-3.389 -6.592,-3.491 -0.53,-0.326 -0.877,-0.882 -0.94,-1.501 l -0.535,-5.295 z m 42.287,20.131 h 8.666 c 1.335,0 2.598,0.313 3.721,0.868 l 0.845,-6.754 c 0.125,-1.001 0.976,-1.752 1.984,-1.752 h 7.05 c 1.009,0 1.859,0.751 1.984,1.752 l 0.812,6.493 c 0.971,-0.392 2.03,-0.607 3.14,-0.607 h 8.665 c 1.295,0 2.523,0.294 3.621,0.819 0.273,-1.371 0.747,-3.219 1.563,-5.552 0.854,-2.441 2.405,-4.545 3.934,-6.174 H 72.803 c 1.528,1.629 3.079,3.732 3.934,6.174 0.769,2.197 1.232,3.964 1.513,5.307 0.947,-0.37 1.977,-0.574 3.056,-0.574 z m -26.208,-20.556 c 3.287,3.478 7.94,5.65 13.092,5.65 h 63.713 c 5.096,0 9.703,-2.125 12.984,-5.536 -2.129,-1.081 -4.988,-3.345 -6.973,-8.05 -0.706,-1.676 -1.147,-4.077 -1.402,-6.824 -0.005,-0.034 -0.008,-0.067 -0.01,-0.101 -0.589,-6.462 -0.166,-14.795 0.228,-20.076 l -3.668,3.155 c -0.118,0.103 -0.247,0.19 -0.384,0.261 v 0.001 c -0.002,0 -0.003,0.001 -0.005,0.002 -0.001,0 -0.001,0.003 -0.005,0.002 0,0.003 -0.001,0.001 -0.005,0.003 0,0 0.003,0 -0.005,0.003 h -10e-4 c -0.001,0.001 -0.003,0.002 -0.004,0.002 l -0.001,0.001 c -0.002,0 -0.003,0.001 -0.004,0.002 0,-0.001 -0.002,0.002 -0.005,0.002 0,0 -0.003,0.001 -0.005,0.003 -0.002,0 -0.001,0.002 -0.005,0.002 -0.001,0.002 -0.002,0.001 -0.005,0.003 -0.002,-0.001 -0.004,0.001 -0.005,0.002 -10e-4,10e-4 -0.002,10e-4 -0.004,0.002 0,0 -0.003,0.001 -0.005,0.003 h -0.001 c -0.002,0.001 -0.004,0.002 -0.005,0.002 l -0.001,0.001 c -0.128,0.061 -0.262,0.107 -0.399,0.14 v 0 c -0.019,0.004 -0.038,0.009 -0.057,0.012 v 0.001 c -0.003,10e-4 -0.006,0 -0.006,10e-4 -0.002,0 -0.003,0 -0.005,0.001 0,0 -0.002,0.001 -0.006,0.001 h -10e-4 c -0.004,0 -0.006,0.001 -0.006,0.001 -0.002,0.002 -0.004,0.001 -0.006,0.001 -0.002,0.002 -0.004,0 -0.006,0.002 -0.002,0 -0.004,-10e-4 -0.006,0.001 -0.002,0 -0.003,-0.001 -0.005,0.001 H 132.1 c 0,-0.001 -0.002,0.001 -0.005,0.001 -0.002,0 -0.004,0.001 -0.006,0.001 -0.002,0 -0.001,0.001 -0.005,0.001 -0.002,0 -0.004,10e-4 -0.006,10e-4 -0.001,0 -0.003,0.001 -0.006,0.001 -0.002,0 -0.003,0.001 -0.005,0.001 -0.002,0 -0.004,0.001 -0.006,0.001 -0.002,0 -0.004,0.001 -0.006,0.001 -0.002,0 -0.003,-0.001 -0.005,10e-4 h -0.004 -0.001 c -0.002,0.001 -0.003,0.001 -0.004,0.001 h -0.001 c -0.009,0.001 -0.018,0.003 -0.026,0.004 v 0 c -0.002,0 -0.003,0 -0.005,10e-4 h -10e-4 -0.005 c -10e-4,0 -0.003,0.001 -0.005,0.001 -0.002,0 -0.002,-0.001 -0.006,0.001 h -10e-4 c -0.004,0 -0.004,-0.001 -0.006,0.001 h -0.006 c -0.001,0 -0.002,0.001 -0.004,0.001 h -0.001 c -0.004,0 -0.004,-0.001 -0.006,0.001 h -0.006 c 0,0 -0.002,0 -0.004,10e-4 h -0.001 -0.005 c 0,0 -0.003,0.001 -0.005,0.001 h -0.006 -0.001 c -0.002,0.001 -0.003,0.001 -0.005,0.001 h -0.001 c -0.002,0 -0.004,-0.001 -0.006,0.001 h -0.006 -0.004 c 0,-0.001 -0.002,0.001 -0.006,0.001 v 0 c -0.004,0 -0.007,0.001 -0.011,0.001 v 0 c -0.012,0.002 -0.028,0.003 -0.033,0.002 -0.002,0 -0.005,0.002 -0.006,0.001 h -0.006 -0.004 -0.001 -0.006 c -0.004,0.002 -0.004,0.001 -0.006,0.001 h -0.004 -0.005 -0.006 c -0.003,0 -0.004,0.001 -0.006,0.001 h -0.006 -0.005 -0.006 -0.006 -0.002 c -0.002,0 -0.005,0.002 -0.006,0.001 h -0.006 -0.006 -0.006 -0.006 -0.006 -0.006 -0.002 -0.008 -0.004 -0.005 -0.006 -0.005 -0.004 -0.005 -0.006 -0.005 c -0.002,0 -0.004,-0.001 -0.006,-0.001 h -0.006 -0.005 -0.006 v 0 c -0.006,0 -0.018,0 -0.016,-0.001 h -0.006 -0.004 -10e-4 -0.006 c -0.001,0 -0.003,0 -0.004,-0.001 h -0.005 -0.002 -0.006 -0.004 c 0,0 -0.003,-0.001 -0.005,-0.001 h -0.006 c 0.001,0.001 -0.013,0 -0.021,-0.002 h -0.001 -0.004 -10e-4 -0.006 c -0.001,-0.001 -0.003,-0.001 -0.004,-0.001 h -0.005 -0.002 c -0.002,-0.002 -0.004,-0.001 -0.006,-0.001 h -0.004 -0.001 c -0.004,0 -0.005,-0.001 -0.005,-0.001 h -0.005 c 0.003,0 -0.02,-0.002 -0.031,-0.004 h -0.005 -0.001 c -0.004,0 -0.006,-0.001 -0.006,-0.001 -0.001,0 -0.003,-0.001 -0.006,-0.001 h -0.005 c -0.004,0 -0.004,-0.001 -0.006,-0.001 -0.001,0 -0.002,0 -0.004,-0.001 h -0.005 c -0.002,0 -0.005,-10e-4 -0.006,-10e-4 h -0.001 c -0.006,-0.001 -0.013,-0.002 -0.019,-0.003 h -0.005 c -0.002,-0.002 -0.003,-0.001 -0.005,-0.001 -0.002,0 -0.004,-0.001 -0.006,-0.001 -0.002,0 -0.003,-10e-4 -0.006,-10e-4 -0.002,0 -0.004,-0.001 -0.005,-0.001 -10e-4,0 -0.003,0 -0.006,-0.001 h -0.004 l -0.001,-0.001 h -0.005 c 0.002,0.001 -0.007,-0.001 -0.013,-0.003 -0.002,0 -0.004,0.001 -0.006,-0.001 h -0.004 c 0,0 -0.004,-0.001 -0.006,-0.001 -0.002,-0.002 -0.003,0 -0.007,-0.002 h -0.003 c -0.597,-0.11 -1.112,-0.486 -1.399,-1.022 l -4.268,-7.974 c -10e-4,-0.002 -0.003,-0.005 -0.004,-0.008 0,-0.001 -0.001,-0.001 -0.001,-0.001 0,-0.004 -0.002,-0.005 -0.002,-0.005 -0.002,-0.005 -0.003,-0.005 -0.003,-0.005 -0.002,-0.004 -0.001,-0.005 -0.003,-0.005 0,-0.003 -0.002,-0.005 -0.002,-0.005 -10e-4,-0.002 -0.002,-0.003 -0.002,-0.005 h -10e-4 c -0.001,-0.002 -0.001,-0.003 -0.002,-0.005 v 0 c -10e-4,-0.002 -0.002,-0.003 -0.003,-0.005 v 0 c -10e-4,-0.002 -10e-4,-0.003 -0.002,-0.005 v 0 c -0.001,-0.002 -0.002,-0.003 -0.003,-0.005 v 0 c -0.194,-0.391 -0.25,-0.821 -0.18,-1.229 v 0 -0.005 c 0.001,0 0.001,-0.001 0.001,-0.001 v -0.004 c 0,0 0.001,-0.003 0.001,-0.005 0,-0.002 10e-4,-0.003 10e-4,-0.005 0,-0.002 0.001,-0.003 0.001,-0.005 0,-10e-4 0.001,-0.003 0.001,-0.004 v -0.001 c 0.034,-0.184 0.095,-0.362 0.179,-0.53 v -0.001 c 10e-4,-10e-4 0.002,-0.003 0.003,-0.004 v -0.001 c 10e-4,-0.002 0.004,-0.005 0.003,-0.005 0,-0.002 0.002,-0.004 0.002,-0.006 0.002,-0.001 0.003,-0.002 0.003,-0.005 l 10e-4,-0.001 c 0.001,-0.002 0.001,-0.003 0.002,-0.004 v -0.001 c 0.112,-0.214 0.264,-0.41 0.453,-0.576 0,-0.002 0.002,-0.003 0.004,-0.003 v -0.001 l 5.303,-4.634 c -4.739,0.737 -10.676,1.519 -15.242,1.654 -8.677,0.26 -15.555,0.263 -15.623,0.263 -0.255,0 -0.498,-0.048 -0.723,-0.135 -0.225,0.087 -0.468,0.135 -0.723,0.135 -0.068,0 -6.946,-0.003 -15.624,-0.263 -4.568,-0.136 -10.507,-0.918 -15.247,-1.654 l 5.308,4.633 c 0.012,0.011 0.023,0.021 0.034,0.031 10e-4,0 0.003,0.002 0.003,0.002 0.191,0.176 0.343,0.384 0.451,0.608 v 0 c 0.001,0.002 0.001,0.004 0.002,0.005 0.071,0.15 0.124,0.31 0.156,0.472 v 0 c 0,0.004 0.001,0.006 0.001,0.006 0,0.002 10e-4,0.004 10e-4,0.006 0.002,0.002 0.001,0.004 0.001,0.006 0.002,0.002 0.001,0.003 0.001,0.005 10e-4,0.001 10e-4,0.002 10e-4,0.002 0,0.003 0.001,0.005 0.001,0.005 -0.001,0.005 0.001,0.005 0.001,0.005 v 0.005 h 10e-4 c 0.07,0.401 0.02,0.824 -0.165,1.211 v 0 c -0.001,0.002 -0.001,0.003 -0.002,0.005 v 0 c -10e-4,0.002 -0.002,0.003 -0.002,0.005 -0.002,0 -0.001,0.001 -0.003,0.005 v 0.001 c -10e-4,0.001 -0.002,0.002 -0.002,0.004 l -0.001,0.001 c 0,0.001 -10e-4,0.003 -0.002,0.004 v 0.001 c -0.001,0.001 -0.002,0.003 -0.002,0.004 l -0.001,10e-4 c 0,0.001 -0.001,0.003 -0.002,0.004 0,0 0,0.001 -0.001,0.001 0,0.002 -0.001,0.003 -0.001,0.004 0,0 -10e-4,0.003 -0.003,0.005 0,0 -0.002,0.002 -0.002,0.005 -0.002,0 -0.001,0.003 -0.003,0.005 0,0 -0.002,0.003 -0.002,0.005 -0.001,0.002 -0.003,0.002 -0.003,0.005 -0.001,0 -0.001,0.003 -0.003,0.005 0,0 -0.003,0.003 -0.002,0.005 -10e-4,0.001 -10e-4,0.002 -0.002,0.003 0,0 -0.002,0.003 -0.004,0.007 l -4.268,7.973 c -0.002,0.002 -0.003,0.004 -0.004,0.006 0,0.002 -0.002,0.003 -0.003,0.007 -0.001,0 -0.001,0.001 -0.002,0.002 -10e-4,0.003 -0.002,0.004 -0.004,0.007 0,0.002 -0.002,0.005 -0.003,0.007 -0.002,0.002 -0.002,0.004 -0.004,0.006 0,0.001 -0.001,0.002 -0.004,0.007 0.001,0.002 -0.003,0.005 -0.003,0.006 -0.002,0.001 -10e-4,0.003 -0.004,0.006 0,0.001 -0.003,0.002 -0.003,0.007 -0.002,0.002 -0.002,0.004 -0.004,0.006 -0.002,0.002 -0.002,0.004 -0.004,0.006 0,10e-4 -10e-4,0.004 -0.004,0.007 0,0.001 -0.001,0.001 -0.001,0.002 -0.002,0.004 -0.003,0.005 -0.004,0.007 -0.002,0.002 -0.002,0.004 -0.004,0.006 -0.001,0.001 -0.001,0.002 -0.002,0.004 -0.002,0 -10e-4,0.003 -0.004,0.006 0,0.001 -0.001,0.001 -0.001,0.002 -0.001,0.003 -0.004,0.006 -0.004,0.006 -10e-4,0.003 -0.004,0.004 -0.004,0.007 -0.001,0.001 -0.002,0.002 -0.003,0.004 0,0 -0.003,0.002 -0.003,0.006 -0.002,0 -0.002,0.004 -0.004,0.006 -0.002,0.002 -10e-4,0.004 -0.004,0.006 -0.002,0.002 -0.001,0.003 -0.004,0.006 -0.003,0.002 -0.002,0.004 -0.004,0.006 -10e-4,0.001 -10e-4,0.002 -10e-4,0.002 -0.002,0.004 -0.004,0.006 -0.004,0.006 -0.002,0.004 -0.004,0.006 -0.004,0.006 -10e-4,0.002 -0.002,0.003 -0.003,0.005 -10e-4,0 -10e-4,0.001 -10e-4,0.001 -0.001,0.002 -0.002,0.003 -0.003,0.005 -0.001,0 -0.001,0.001 -0.001,0.001 -0.001,0.002 -0.002,0.003 -0.003,0.005 -0.001,0 -0.001,0.001 -0.001,0.001 -10e-4,0.002 -0.002,0.003 -0.004,0.005 v 0.001 c -0.002,0.002 -0.003,0.003 -0.004,0.005 0,0.001 -0.002,0.004 -0.004,0.006 0,0 -0.002,0.002 -0.004,0.006 0,0 -0.002,0.002 -0.004,0.006 h -0.001 c -0.002,0.004 -0.004,0.006 -0.004,0.006 -0.002,0.002 -0.004,0.005 -0.004,0.006 -0.001,0.002 -0.003,0.004 -0.004,0.005 v 0.001 c -10e-4,0.002 -0.003,0.003 -0.004,0.005 10e-4,0.001 -0.002,0.003 -0.004,0.006 h -0.001 c -10e-4,0.002 -0.002,0.004 -0.004,0.006 v 0 c -0.001,0.002 -0.003,0.004 -0.004,0.006 v 0 c -0.156,0.21 -0.352,0.386 -0.573,0.52 v 0 c -0.002,10e-4 -0.004,0.002 -0.006,0.004 v 0 l -0.006,0.003 v 0 c -0.003,0.002 -0.007,0.005 -0.007,0.004 l -0.006,0.003 v 0 c -0.002,0.002 -0.004,0.003 -0.006,0.004 v 0 l -0.006,0.003 v 0.001 l -0.006,0.003 v 0 c -0.003,0.001 -0.004,0.003 -0.007,0.004 -0.002,10e-4 -0.003,0.002 -0.005,0.003 h -0.001 l -0.006,0.003 v 10e-4 l -0.006,0.003 v 0 l -0.006,0.003 c 0,0.001 -0.002,0.003 -0.006,0.004 h -10e-4 c -0.003,0.002 -0.007,0.002 -0.006,0.003 l -0.006,0.003 v 0.001 l -0.006,0.003 c 0.001,0 -0.003,0.002 -0.006,0.003 h -0.001 l -0.006,0.003 v 0.001 l -0.006,0.003 h -10e-4 c -0.003,0.002 -0.005,0.003 -0.006,0.003 l -0.006,0.003 v 0 l -0.006,0.003 -0.001,0.001 -0.006,0.003 v 0 l -0.006,0.003 v 0 c -0.003,0.002 -0.007,0.003 -0.007,0.003 l -0.006,0.003 v 0 l -0.006,0.003 v 0 c -0.002,0.001 -0.005,0.002 -0.007,0.003 v 0 c -0.037,0.018 -0.075,0.035 -0.114,0.051 0.001,0.001 -0.004,0.001 -0.007,0.002 v 0 l -0.006,0.003 c 0.001,0 -0.002,0.001 -0.006,0.002 -0.002,0 -0.004,0.001 -0.006,0.003 h -0.002 c -0.004,0.001 -0.005,0.002 -0.007,0.003 -0.003,0 -0.004,0 -0.007,0.003 -0.002,0 -0.005,0.002 -0.007,0.002 -0.002,0.002 -0.004,0 -0.007,0.003 -0.002,0 -0.004,0.002 -0.006,0.002 -0.004,0.003 -0.006,0.002 -0.007,0.003 -0.002,0 -0.004,0.002 -0.007,0.002 -0.002,-10e-4 -0.004,0.002 -0.007,0.002 -0.002,0.001 -0.004,0 -0.007,0.003 -0.002,0 -0.003,0.002 -0.007,0.002 -0.002,0.002 -0.004,0.001 -0.006,0.003 -0.002,0 -0.005,0 -0.007,0.002 -0.004,-10e-4 -0.006,0.002 -0.007,0.002 -0.003,0.003 -0.005,0.002 -0.007,0.002 -0.002,0.003 -0.005,0.001 -0.007,0.003 -0.002,-0.001 -0.005,0.002 -0.007,0.002 -0.002,0 -0.003,0.002 -0.007,0.002 -10e-4,0 -0.002,10e-4 -0.002,10e-4 -0.003,0 -0.004,0.001 -0.007,0.002 -0.002,0.001 -0.004,0.001 -0.007,0.002 -0.002,0.002 -0.004,0.003 -0.007,0.002 -0.003,0.001 -0.004,0.002 -0.007,0.002 -0.003,0.001 -0.004,0 -0.007,0.003 -0.004,0 -0.004,-0.002 -0.007,0.002 -0.003,-0.001 -0.005,-0.002 -0.007,0.002 -0.002,-0.001 -0.005,-0.001 -0.007,0.002 -0.004,0 -0.007,-0.002 -0.006,0.002 -0.003,0 -0.005,0.001 -0.007,0.001 v 0 c -0.003,0.001 -0.005,0.002 -0.007,0.002 v 0 c -0.003,0.001 -0.005,0.002 -0.007,0.002 v 0 c -0.003,0.001 -0.005,0.001 -0.007,0.002 v 0 c -0.003,0.001 -0.005,0.001 -0.007,0.002 v 0 c -0.047,0.012 -0.094,0.022 -0.142,0.031 -0.107,0.021 -0.216,0.031 -0.324,0.034 v 0 h -0.005 v 0 h -0.005 -0.001 -0.005 v 0 h -0.005 -10e-4 -0.005 v 0 c -0.008,0.001 -0.019,0 -0.027,0 v 0 H 67.963 67.962 67.956 67.95 67.943 67.938 c -0.001,0 -0.002,-0.001 -0.007,-0.001 H 67.926 67.92 67.914 67.912 67.906 c -0.001,0 0.007,-0.001 -0.006,-0.001 h -0.006 -0.005 -0.006 c -10e-4,0 -0.003,0 -0.004,-0.001 h -0.006 -0.001 -0.006 c -0.002,0 -0.005,0.001 -0.005,-0.001 h -0.005 c 0.002,0 -0.021,-10e-4 -0.033,-0.002 v 0 c -0.004,0 -0.007,-0.001 -0.011,-0.001 v 0 c -0.003,0 -0.006,-0.001 -0.006,-0.001 H 67.8 c -0.002,-0.001 -0.005,0 -0.006,-0.001 H 67.79 67.789 c -0.002,0 -0.003,0 -0.005,-0.001 h -0.001 -0.006 c -0.001,0 -0.003,-10e-4 -0.004,-10e-4 h -0.005 -0.002 c -0.004,-0.002 -0.004,-0.001 -0.006,-0.001 -0.001,0.001 -0.002,-0.001 -0.006,-0.001 H 67.75 67.749 c -0.004,0 -0.006,-0.001 -0.006,-0.001 -0.002,0 -0.004,-0.001 -0.006,-0.001 h -0.004 c 0,0 -0.003,-0.001 -0.005,-0.001 h -0.002 c -0.003,0 -0.005,-10e-4 -0.006,-10e-4 h -0.004 c 0,0 -0.003,-0.001 -0.005,-0.001 -0.003,0.001 -0.004,-0.001 -0.006,-0.001 -0.004,0 -0.009,0 -0.015,-0.002 -0.002,0 -0.004,0.001 -0.004,-0.001 H 67.68 c -0.001,-10e-4 -0.002,-10e-4 -0.004,-10e-4 0,0 -0.003,-0.001 -0.005,-0.001 h -0.002 c -0.002,0 -0.003,-0.002 -0.006,-0.001 -0.002,0 -0.004,-0.001 -0.006,-0.001 -10e-4,0 -0.002,0 -0.004,-0.001 h -0.005 c -0.002,-0.002 -0.004,-0.001 -0.006,-0.001 -0.002,-0.002 -0.004,-10e-4 -0.006,-10e-4 0,-0.001 -10e-4,-0.001 -10e-4,-0.001 -0.002,0 -0.006,-0.001 -0.006,-0.001 -0.002,0 0.005,0 -0.006,-0.001 -0.002,0 -0.004,-0.001 -0.006,-0.001 -0.001,0 -0.003,0 -0.004,-0.001 h -0.001 c -0.002,0 -0.003,0 -0.005,-10e-4 h -0.001 c -0.002,0 -0.003,0 -0.005,-0.001 0,0 -0.002,-0.001 -0.006,-0.001 v 0 c -0.226,-0.043 -0.442,-0.125 -0.642,-0.243 v 0 c -0.002,-0.001 -0.003,-0.002 -0.005,-0.003 v 0 c -0.002,-0.001 -0.003,-0.002 -0.005,-0.003 0,-0.001 -0.001,-0.001 -0.005,-0.003 0,0 -0.001,0 -0.004,-0.003 -0.002,0 -0.002,0 -0.005,-0.003 -0.002,0 -0.001,0.001 -0.005,-0.003 -0.001,0 -0.002,-0.001 -0.002,-0.001 -0.002,-0.001 -0.005,-0.004 -0.005,-0.003 -0.001,-0.001 -0.002,-0.003 -0.005,-0.003 -0.001,-0.001 -0.002,-0.003 -0.005,-0.003 -10e-4,-0.002 -10e-4,-0.003 -0.005,-0.003 -0.002,-0.001 -0.001,0 -0.005,-0.004 -0.002,0 -0.002,0 -0.005,-0.003 h -10e-4 c -0.001,-0.001 -0.003,-0.002 -0.004,-0.003 v 0 c -0.077,-0.05 -0.151,-0.105 -0.223,-0.166 l -3.67,-3.158 c 0.395,5.291 0.817,13.643 0.224,20.108 l -0.003,0.036 c -0.255,2.761 -0.697,5.175 -1.406,6.856 -1.875,4.534 -4.609,6.802 -6.711,7.925 z m 85.574,-13.453 c 0.214,1.621 0.516,2.985 0.928,3.963 1.773,4.205 4.278,5.751 5.649,6.305 0.077,-0.057 0.158,-0.108 0.243,-0.153 1.545,-2.656 2.43,-5.741 2.43,-9.029 v -3.289 z m -90.501,-2.127 v 3.212 c 0,3.328 0.907,6.448 2.486,9.126 1.387,-0.596 3.79,-2.175 5.508,-6.248 0.412,-0.978 0.714,-2.342 0.928,-3.963 z m 101.919,12.005 h 7.142 c 0.495,-4.319 1.541,-16.165 -0.214,-27.639 -1.307,-8.543 -3.535,-14.466 -5.096,-17.817 v 36.663 c 0,3.124 -0.655,6.098 -1.832,8.793 z m -111.557,0 h 7.47 c -1.178,-2.694 -1.832,-5.669 -1.832,-8.793 v -5.7 c -10e-4,-0.028 -10e-4,-0.057 0,-0.084 v -30.943 c -1.641,3.189 -4.078,9.087 -5.424,17.882 -1.757,11.489 -0.71,23.321 -0.214,27.638 z m 9.638,-16.117 9.265,2.208 c 0.35,-7.162 -0.277,-16.479 -0.733,-21.229 l -8.531,-8.025 v 27.046 z m 90.892,-19.02 c -0.456,4.749 -1.083,14.066 -0.733,21.229 l 9.592,-2.286 v -27.276 z m -91.522,-14.109 17.92,16.321 2.278,-4.255 -10.383,-8.446 c -0.04,-0.032 -0.077,-0.065 -0.114,-0.1 l -12.411,-11.527 c -0.015,-0.014 -0.028,-0.026 -0.042,-0.04 l -0.874,-0.812 -0.776,4.717 z m 80.485,12.066 2.277,4.254 18.243,-16.624 4.08,-3.838 -0.777,-4.717 -0.553,0.514 c -0.009,0.009 -0.019,0.018 -0.028,0.026 l -12.747,11.84 c -0.024,0.023 -0.049,0.045 -0.074,0.067 -0.002,0 -0.001,0 -0.004,0.003 -0.013,0.011 -0.025,0.021 -0.038,0.031 z m -67.497,-11.679 c 3.889,0.702 14.303,2.481 21.126,2.685 8.614,0.258 15.437,0.261 15.505,0.261 0.255,0 0.498,0.048 0.723,0.135 0.225,-0.087 0.468,-0.135 0.723,-0.135 0.068,0 6.891,-0.003 15.504,-0.261 6.816,-0.203 17.217,-1.979 21.114,-2.682 l 12.698,-11.096 V 78.879992 C 148.44861,62.53589 148.03903,53.904566 140.9727,48.19118 128.86819,38.404247 110.18186,39.698221 94.218903,39.698221 84.32199,40.049049 75.778635,42.94556 69.666832,45.463678 57.453832,52.217678 50.171,63.963992 50.171,78.880992 V 131.42899 Z M 59.718,47.317992 c -39.812,121.788008 -19.906,60.894008 0,0 z"
   id="path2"
   inkscape:connector-curvature="0"
   sodipodi:nodetypes="sssscccccssssssccccccccccscccccccccccccsccscccccccccccccscccccccccccsssccsccssccscccsccssccscccccssccccccccccccccccccssccccccccccccccssccssccssccccccscssccccccccccccccccccccscccccccccccssccccccsssssssscccscccccsscscssscccccsccsscccccccccccccsccssccccsccccccccccccccccssccccccccscccccsccccccsccscsccccscssscsscccsssscccccccccccccccccccccccccccccccccssssccccccccccccccccscscccccccccccccccccccccccccccccccccccccccccccccccccccccccsccccscccccccsccsccccccccccccccccccccccccccccccccccccccccccccccccccccccccccccccccccccccccccccccccccccccccccccccccccccssccccccccccccccccccccccccccccccccccccccccssccccssccscccsccccccccccsccsscccscscscsssccsccccsscscccccccscscsccccccccccccccccccccccccccscccccscccsccccccccccccsccccccccccccccccccccccccccccccccccccscccscsccsccccscc"
   style="fill:#000000;fill-opacity:1" />
<path
   style="fill:none;stroke:#000000;stroke-width:3;stroke-linecap:round;stroke-linejoin:miter;stroke-miterlimit:4;stroke-dasharray:none;stroke-opacity:1"
   d="m 80.323786,126.4941 c 20.080614,18.21088 40.180284,0.23807 40.180284,0.23807"
   id="mouth"
   inkscape:connector-curvature="0"
   sodipodi:nodetypes="cc" /><path
   d="m 101.44054,188.05429 h -5.259996 c -7.812,0 -14.166,-6.354 -14.166,-14.166 v -11.509 c 0,-1.104 0.896,-2 2,-2 h 29.592996 c 1.104,0 2,0.896 2,2 v 11.509 c 0,7.812 -6.355,14.166 -14.167,14.166 z m -15.425996,-23.675 v 9.509 c 0,5.605 4.561,10.166 10.166,10.166 h 5.259996 c 5.606,0 10.167,-4.561 10.167,-10.166 v -9.509 z"
   id="pocket"
   inkscape:connector-curvature="0"
   sodipodi:nodetypes="ssssssssssscssss" /><g
   id="groupSingleEye"
   transform="translate(-137.8129,25.746973)"><rect
     style="opacity:1;fill:#a87a51;fill-opacity:1;fill-rule:nonzero;stroke:#000000;stroke-width:1;stroke-linecap:round;stroke-linejoin:round;stroke-miterlimit:4;stroke-dasharray:none;stroke-opacity:1"
     id="rect1687"
     width="23.937542"
     height="7.8385825"
     x="187.94418"
     y="51.77599" /><rect
     style="opacity:1;fill:#a87a51;fill-opacity:1;fill-rule:nonzero;stroke:#000000;stroke-width:1;stroke-linecap:round;stroke-linejoin:round;stroke-miterlimit:4;stroke-dasharray:none;stroke-opacity:1"
     id="rect1687-5"
     width="23.514313"
     height="8.1378508"
     x="264.27368"
     y="51.476719" /><ellipse
     ry="28.131191"
     rx="26.223358"
     cy="56.190193"
     cx="238.92807"
     id="singleEyeWhite"
     style="opacity:1;fill:#ffffff;fill-opacity:1;fill-rule:nonzero;stroke:none;stroke-width:3;stroke-linecap:round;stroke-linejoin:round;stroke-miterlimit:4;stroke-dasharray:none;stroke-opacity:1" /><circle
     r="9"
     cy="55.917393"
     cx="238.54724"
     id="pupil"
     style="opacity:1;fill:none;fill-opacity:1;fill-rule:nonzero;stroke:#000000;stroke-width:3;stroke-linejoin:round;stroke-miterlimit:4;stroke-dasharray:none;stroke-opacity:1" /><circle
     r="19"
     cy="55.804222"
     cx="239.27957"
     id="eye"
     style="opacity:1;fill:none;fill-opacity:1;fill-rule:nonzero;stroke:#000000;stroke-width:3;stroke-linejoin:round;stroke-miterlimit:4;stroke-dasharray:none;stroke-opacity:1" /><circle
     r="26.974396"
     cy="55.965744"
     cx="239.1151"
     id="singleEye"
     style="opacity:1;fill:none;fill-opacity:1;fill-rule:nonzero;stroke:#000000;stroke-width:4.25911522;stroke-linejoin:round;stroke-miterlimit:4;stroke-dasharray:none;stroke-opacity:1" /></g><g
   id="hairSpiked"
   transform="translate(0,30.235992)"><path
     inkscape:connector-curvature="0"
     id="path1708"
     d="M 68.682002,19.604682 C 56.561649,11.67408 42.496053,13.320054 42.496053,13.320054"
     style="fill:none;stroke:#000000;stroke-width:1.5;stroke-linecap:round;stroke-linejoin:miter;stroke-miterlimit:4;stroke-dasharray:none;stroke-opacity:1" /><path
     inkscape:connector-curvature="0"
     id="path1712"
     d="M 110.57952,14.66676 C 110.28025,-7.0301686 121.20353,-7.4790706 121.20353,-7.4790706"
     style="fill:none;stroke:#000000;stroke-width:1.5;stroke-linecap:butt;stroke-linejoin:miter;stroke-miterlimit:4;stroke-dasharray:none;stroke-opacity:1" /><path
     inkscape:connector-curvature="0"
     id="path1714"
     d="M 130.03194,19.006146 C 146.34204,-0.44627297 156.21789,5.9879887 156.21789,5.9879887"
     style="fill:none;stroke:#000000;stroke-width:1.5;stroke-linecap:round;stroke-linejoin:miter;stroke-miterlimit:4;stroke-dasharray:none;stroke-opacity:1" /><path
     inkscape:connector-curvature="0"
     id="path1716"
     d="m 141.85302,23.794434 c 7.63134,-12.269988 14.36487,-10.175112 14.36487,-10.175112"
     style="fill:none;stroke:#000000;stroke-width:1.5;stroke-linecap:round;stroke-linejoin:miter;stroke-miterlimit:4;stroke-dasharray:none;stroke-opacity:1" /><path
     inkscape:connector-curvature="0"
     id="path1718"
     d="m 124.34585,14.816394 c 1.19707,-17.0582749 8.97804,-16.1604709 8.97804,-16.1604709"
     style="fill:none;stroke:#000000;stroke-width:1.5;stroke-linecap:round;stroke-linejoin:miter;stroke-miterlimit:4;stroke-dasharray:none;stroke-opacity:1" /><path
     inkscape:connector-curvature="0"
     id="path1720"
     d="M 94.419048,13.020786 C 90.079663,-7.4790705 79.306015,-7.3294365 79.306015,-7.3294365"
     style="fill:none;stroke:#000000;stroke-width:1.5;stroke-linecap:round;stroke-linejoin:miter;stroke-miterlimit:4;stroke-dasharray:none;stroke-opacity:1" /><path
     inkscape:connector-curvature="0"
     id="path1722"
     d="m 100.70368,13.320054 c 0.8978,-19.7516867 4.78829,-20.0509546 4.78829,-20.0509546"
     style="fill:none;stroke:#000000;stroke-width:1.5;stroke-linecap:round;stroke-linejoin:miter;stroke-miterlimit:4;stroke-dasharray:none;stroke-opacity:1" /><path
     inkscape:connector-curvature="0"
     id="path1724"
     d="M 85.740277,15.41493 C 74.667362,-1.6433449 69.72944,-1.4937109 69.72944,-1.4937109"
     style="fill:none;stroke:#000000;stroke-width:1.5;stroke-linecap:round;stroke-linejoin:miter;stroke-miterlimit:4;stroke-dasharray:none;stroke-opacity:1" /><path
     inkscape:connector-curvature="0"
     id="path1726"
     d="M 76.014068,16.612002 C 61.649204,3.7434788 55.813479,1.9478709 55.813479,1.9478709"
     style="fill:none;stroke:#000000;stroke-width:1.5;stroke-linecap:round;stroke-linejoin:miter;stroke-miterlimit:4;stroke-dasharray:none;stroke-opacity:1" /><path
     inkscape:connector-curvature="0"
     id="path1728"
     d="M 59.404695,25.590042 C 40.550812,23.794434 38.455936,26.637479 38.455936,26.637479"
     style="fill:none;stroke:#000000;stroke-width:1.5;stroke-linecap:round;stroke-linejoin:miter;stroke-miterlimit:4;stroke-dasharray:none;stroke-opacity:1" /></g><g
   id="hairSprout"
   transform="translate(3.043625,30.435957)"
   style="stroke-width:1.5;stroke-miterlimit:4;stroke-dasharray:none"><path
     inkscape:connector-curvature="0"
     id="path1742"
     d="m 97.660055,13.120089 c -0.634843,-32.271199 3.332925,-33.223464 3.332925,-33.223464"
     style="fill:none;stroke:#000000;stroke-width:1.5;stroke-linecap:round;stroke-linejoin:miter;stroke-miterlimit:4;stroke-dasharray:none;stroke-opacity:1" /><path
     inkscape:connector-curvature="0"
     id="path1744"
     d="m 97.660055,13.120089 c 4.814225,-31.583453 8.729095,-31.68926 8.729095,-31.68926"
     style="fill:none;stroke:#000000;stroke-width:1.5;stroke-linecap:round;stroke-linejoin:miter;stroke-miterlimit:4;stroke-dasharray:none;stroke-opacity:1" /><path
     inkscape:connector-curvature="0"
     id="path1746"
     d="M 97.660055,13.120089 C 104.69624,-19.15111 112.57887,-18.145942 112.57887,-18.145942"
     style="fill:none;stroke:#000000;stroke-width:1.5;stroke-linecap:round;stroke-linejoin:miter;stroke-miterlimit:4;stroke-dasharray:none;stroke-opacity:1" /><path
     inkscape:connector-curvature="0"
     id="path1748"
     d="m 95.808429,12.643956 c 0.74065,-32.535717 -1.957434,-32.694427 -1.957434,-32.694427"
     style="fill:none;stroke:#000000;stroke-width:1.5;stroke-linecap:round;stroke-linejoin:miter;stroke-miterlimit:4;stroke-dasharray:none;stroke-opacity:1" /><path
     inkscape:connector-curvature="0"
     id="path1750"
     d="m 96.956375,13.067185 c -5.13165,-33.223464 -12.2048,-31.107319 -12.2048,-31.107319"
     style="fill:none;stroke:#000000;stroke-width:1.5;stroke-linecap:round;stroke-linejoin:miter;stroke-miterlimit:4;stroke-dasharray:none;stroke-opacity:1"
     sodipodi:nodetypes="cc" /><path
     inkscape:connector-curvature="0"
     id="path1752"
     d="M 95.808429,12.643956 C 88.638955,-16.92916 79.67283,-15.60657 79.67283,-15.60657"
     style="fill:none;stroke:#000000;stroke-width:1.5;stroke-linecap:round;stroke-linejoin:miter;stroke-miterlimit:4;stroke-dasharray:none;stroke-opacity:1"
     sodipodi:nodetypes="cc" /></g></svg>